HIERARCHY
ROOT SpineBase
{
  OFFSET 0.000000 0.000000 0.000000
  CHANNELS 6 Xposition Yposition Zposition Zrotation Xrotation Yrotation
  JOINT SpineMid
  {
    OFFSET 0.000000 28.482768 0.000000
    CHANNELS 3 Zrotation Xrotation Yrotation
    JOINT SpineShoulder
    {
      OFFSET -0.094707 21.117959 -0.681306
      CHANNELS 3 Zrotation Xrotation Yrotation
      JOINT Neck
      {
        OFFSET -0.069569 6.978948 -0.516447
        CHANNELS 3 Zrotation Xrotation Yrotation
        JOINT Head
        {
          OFFSET 3.158911 10.624506 4.503563
          CHANNELS 3 Zrotation Xrotation Yrotation
          End Site
          {
            OFFSET 0 0 0
          }
        }
      }
      JOINT ShoulderLeft
      {
        OFFSET -12.512214 -4.808371 -1.653561
        CHANNELS 3 Zrotation Xrotation Yrotation
        JOINT ElbowLeft
        {
          OFFSET -7.291073 -24.718964 9.045069
          CHANNELS 3 Zrotation Xrotation Yrotation
          JOINT WristLeft
          {
            OFFSET -0.817708 -26.312131 10.590310
            CHANNELS 3 Zrotation Xrotation Yrotation
            JOINT HandLeft
            {
              OFFSET -0.457122 -8.687010 3.833526
              CHANNELS 3 Zrotation Xrotation Yrotation
              JOINT HandTipLeft
              {
                OFFSET 1.405165 -7.644013 1.245089
                CHANNELS 3 Zrotation Xrotation Yrotation
                End Site
                {
                  OFFSET 0 0 0
                }
              }
              JOINT ThumbLeft
              {
                OFFSET -2.755325 -4.195449 -2.103726
                CHANNELS 3 Zrotation Xrotation Yrotation
                End Site
                {
                  OFFSET 0 0 0
                }
              }
            }
          }
        }
      }
      JOINT ShoulderRight
      {
        OFFSET 11.753374 -6.437714 -11.569465
        CHANNELS 3 Zrotation Xrotation Yrotation
        JOINT ElbowRight
        {
          OFFSET 6.325831 -25.754372 2.175692
          CHANNELS 3 Zrotation Xrotation Yrotation
          JOINT WristRight
          {
            OFFSET 3.691079 -19.425212 3.924258
            CHANNELS 3 Zrotation Xrotation Yrotation
            JOINT HandRight
            {
              OFFSET 0.103789 -3.471509 2.391435
              CHANNELS 3 Zrotation Xrotation Yrotation
              JOINT HandTipRight
              {
                OFFSET 2.265674 -9.162131 2.689537
                CHANNELS 3 Zrotation Xrotation Yrotation
                End Site
                {
                  OFFSET 0 0 0
                }
              }
              JOINT ThumbRight
              {
                OFFSET -5.268757 0.073856 -1.311794
                CHANNELS 3 Zrotation Xrotation Yrotation
                End Site
                {
                  OFFSET 0 0 0
                }
              }
            }
          }
        }
      }
    }
  }
  JOINT HipLeft
  {
    OFFSET -5.743603 0.597106 -0.977129
    CHANNELS 3 Zrotation Xrotation Yrotation
    JOINT KneeLeft
    {
      OFFSET -3.082154 -49.644756 3.381458
      CHANNELS 3 Zrotation Xrotation Yrotation
      JOINT AnkleLeft
      {
        OFFSET 0.123465 -34.236343 0.956098
        CHANNELS 3 Zrotation Xrotation Yrotation
        JOINT FootLeft
        {
          OFFSET 7.333754 -2.368385 -5.202153
          CHANNELS 3 Zrotation Xrotation Yrotation
          End Site
          {
            OFFSET 0 0 0
          }
        }
      }
    }
  }
  JOINT HipRight
  {
    OFFSET 4.889294 0.623374 -5.389174
    CHANNELS 3 Zrotation Xrotation Yrotation
    JOINT KneeRight
    {
      OFFSET 1.248242 -48.874539 -3.034935
      CHANNELS 3 Zrotation Xrotation Yrotation
      JOINT AnkleRight
      {
        OFFSET 0.703127 -34.219763 -3.480109
        CHANNELS 3 Zrotation Xrotation Yrotation
        JOINT FootRight
        {
          OFFSET -4.277899 -4.166906 -12.527943
          CHANNELS 3 Zrotation Xrotation Yrotation
          End Site
          {
            OFFSET 0 0 0
          }
        }
      }
    }
  }
}
MOTION
Frames: 15
Frame Time: 0.033333
46.297749 92.150993 336.419904 -4.103498 3.142322 10.295279 -0.524811 0.595379 -10.315654 -0.161033 0.232352 -0.182803 5.753791 10.560143 -4.041173 0.000000 0.000000 0.000000 3.579489 5.747978 -2.877086 -5.900834 -9.521827 -0.817953 -0.979621 8.132918 -0.467851 -1.676373 -5.168693 2.541484 0.000000 0.000000 0.000000 0.000000 0.000000 0.000000 1.033734 -10.636897 -2.003072 2.743033 27.029265 6.019610 -4.582681 -29.376439 -7.321789 -20.642836 16.840965 2.313421 0.000000 0.000000 0.000000 0.000000 0.000000 0.000000 2.209238 -2.338880 -10.314547 1.516660 -1.227839 0.195813 -23.144469 -15.306917 9.925756 0.000000 0.000000 0.000000 2.423421 -1.271688 -9.961978 0.142302 -0.537523 0.018238 4.909138 -0.524993 -12.047188 0.000000 0.000000 0.000000
46.338996 92.212459 336.532359 -4.556052 3.405883 7.698187 -0.716155 0.689023 -7.713887 -0.180724 0.204978 -0.210318 6.351511 15.082513 -5.283898 0.000000 0.000000 0.000000 4.324738 7.611866 -3.431296 -7.444307 -11.914713 -1.409510 -3.663211 11.980140 -1.134501 -0.285256 -11.128768 2.922584 0.000000 0.000000 0.000000 0.000000 0.000000 0.000000 1.192965 -15.566231 -3.360502 0.963998 37.012772 8.921422 -4.945705 -32.773745 -8.887315 -20.986237 18.676125 3.465872 0.000000 0.000000 0.000000 0.000000 0.000000 0.000000 2.520637 -2.431969 -7.708516 2.126201 -2.546283 0.240036 -26.338143 -16.154294 -9.232423 0.000000 0.000000 0.000000 2.901066 -1.183201 -7.312936 0.182001 -0.825113 0.005915 5.673781 1.184079 -15.541399 0.000000 0.000000 0.000000
46.340632 92.280404 336.565955 -5.047246 3.884941 4.938745 -0.920273 1.064020 -4.923450 -0.194370 0.289742 -0.231121 7.932237 17.380930 -6.495588 0.000000 0.000000 0.000000 5.174036 8.917972 -3.977046 -9.530361 -14.058676 -2.435902 -4.120376 14.528138 -0.855393 1.749533 -15.993172 3.171380 0.000000 0.000000 0.000000 0.000000 0.000000 0.000000 1.370242 -19.793242 -4.409873 -0.248931 43.439045 11.187043 -6.848029 -32.278570 -11.533509 -15.915485 19.003468 5.297518 0.000000 0.000000 0.000000 0.000000 0.000000 0.000000 2.860344 -2.792158 -4.921982 2.760204 -3.179212 0.286419 -21.890963 -13.390246 -19.980707 0.000000 0.000000 0.000000 3.391197 -1.295972 -4.485450 0.326421 -1.142110 -0.013840 5.949263 0.719617 -16.377797 0.000000 0.000000 0.000000
46.320382 92.334952 336.552206 -5.459190 4.468882 2.146054 -1.087184 1.510854 -2.079327 -0.188864 0.405426 -0.239982 8.462829 18.837850 -7.082470 0.000000 0.000000 0.000000 5.809132 10.214477 -4.623176 -11.669273 -16.225783 -3.637100 -4.420798 17.654261 -0.290642 1.980549 -18.523327 3.589868 0.000000 0.000000 0.000000 0.000000 0.000000 0.000000 1.097459 -22.070222 -4.981735 1.100136 45.673944 11.526329 -11.677616 -30.585290 -16.319646 -11.641217 15.735706 6.571623 0.000000 0.000000 0.000000 0.000000 0.000000 0.000000 3.200577 -3.266347 -2.090313 3.326337 -3.796569 0.328230 -14.474595 -10.244896 -27.593366 0.000000 0.000000 0.000000 3.790409 -1.489298 -1.619220 0.616242 -1.494155 -0.041627 6.002027 -1.500022 -15.760684 0.000000 0.000000 0.000000
46.265883 92.365357 336.492496 -5.761416 5.241938 -0.542803 -1.216252 1.976240 0.681354 -0.141213 0.481931 -0.236819 7.054158 19.611085 -6.672141 0.000000 0.000000 0.000000 6.199842 11.169449 -5.252631 -13.947673 -17.295183 -5.024148 -4.074100 19.169608 0.369246 1.586733 -18.855196 4.200345 0.000000 0.000000 0.000000 0.000000 0.000000 0.000000 0.514390 -22.681952 -5.098704 4.488735 43.563053 9.971071 -13.860307 -30.003840 -17.139858 -7.700189 18.340069 8.212786 0.000000 0.000000 0.000000 0.000000 0.000000 0.000000 3.544421 -3.945171 0.656265 3.834230 -4.427070 0.365754 -2.051588 -5.460215 -30.618062 0.000000 0.000000 0.000000 4.118633 -1.842582 1.153044 1.019927 -1.922174 -0.075488 5.683518 -5.058802 -13.070277 0.000000 0.000000 0.000000
46.218345 92.404699 336.433181 -5.945128 6.152655 -3.319902 -1.344675 2.238069 3.528824 -0.086385 0.489898 -0.230474 5.198228 18.959096 -5.780297 0.000000 0.000000 0.000000 6.458003 12.137244 -5.871980 -15.968855 -18.030134 -6.331053 -4.317342 20.803590 0.908340 1.553286 -18.948825 5.193110 0.000000 0.000000 0.000000 0.000000 0.000000 0.000000 -0.169192 -21.251693 -4.630152 7.277947 37.799240 8.070626 -23.048994 -33.732914 -25.087735 -3.032558 28.669638 14.641350 0.000000 0.000000 0.000000 0.000000 0.000000 0.000000 3.869780 -4.726012 3.498402 4.314107 -5.099902 0.406166 11.433598 -1.120014 -34.764993 0.000000 0.000000 0.000000 4.346623 -2.197574 4.022220 1.513730 -2.475376 -0.110870 5.344143 -9.747652 -8.521631 0.000000 0.000000 0.000000
46.170690 92.469316 336.406787 -6.191175 7.183397 -6.065951 -1.367361 2.299347 6.352585 -0.047765 0.469461 -0.226016 4.504056 16.308026 -5.004633 0.000000 0.000000 0.000000 6.354496 13.224212 -6.630858 -17.337721 -18.360533 -7.293366 -4.173436 21.315180 1.350877 3.572563 -18.831566 7.095532 0.000000 0.000000 0.000000 0.000000 0.000000 0.000000 -0.342823 -17.301674 -3.203485 5.933812 32.148250 7.350730 -19.039333 -37.187069 -22.579327 -2.520287 31.093925 13.549005 0.000000 0.000000 0.000000 0.000000 0.000000 0.000000 4.342093 -5.548027 6.330931 4.773824 -5.795146 0.454278 30.699510 7.541689 -33.869463 0.000000 0.000000 0.000000 4.647483 -2.516863 6.886074 2.027883 -3.232834 -0.141751 5.546964 -15.476262 -2.581469 0.000000 0.000000 0.000000
46.060878 92.504619 336.383082 -6.471546 8.216974 -8.642356 -1.288690 2.174150 9.006597 -0.022065 0.434538 -0.223542 3.191059 13.459563 -3.928798 0.000000 0.000000 0.000000 5.901538 14.274276 -7.443525 -17.955660 -17.676497 -7.712195 -3.783122 20.426795 1.465619 7.485068 -18.260774 9.979056 0.000000 0.000000 0.000000 0.000000 0.000000 0.000000 -1.029666 -14.609755 -2.365028 6.802209 27.603043 6.381085 -17.833603 -38.248406 -21.484762 -1.761071 32.963738 13.248424 0.000000 0.000000 0.000000 0.000000 0.000000 0.000000 4.985498 -6.362894 9.024035 5.084848 -6.327565 0.487383 55.601640 20.849589 -33.519210 0.000000 0.000000 0.000000 5.108102 -2.814730 9.593858 2.421780 -3.928135 -0.159279 6.036833 -20.678257 5.067868 0.000000 0.000000 0.000000
45.881720 92.530413 336.356683 -6.810476 9.184459 -10.983243 -1.111202 1.919079 11.425925 -0.013256 0.405143 -0.224562 2.868509 12.200430 -3.621256 0.000000 0.000000 0.000000 5.233874 15.338749 -8.280192 -17.725538 -16.592508 -7.484257 -4.141977 21.278755 1.607924 11.109954 -19.661482 12.733287 0.000000 0.000000 0.000000 0.000000 0.000000 0.000000 -1.686733 -12.084273 -1.595791 8.982534 20.089587 4.788083 -17.404638 -33.391282 -19.552556 -1.959683 33.327234 14.040663 0.000000 0.000000 0.000000 0.000000 0.000000 0.000000 5.817617 -7.080532 11.517489 5.213536 -6.710326 0.501146 58.675153 38.291557 -19.397246 0.000000 0.000000 0.000000 5.711990 -3.004087 12.080156 2.696142 -4.604118 -0.166529 6.867874 -24.797952 13.053206 0.000000 0.000000 0.000000
45.676176 92.545015 336.338096 -7.142667 9.979771 -12.818322 -0.828428 1.572254 13.331165 -0.001800 0.363924 -0.225653 1.796862 11.743022 -3.160837 0.000000 0.000000 0.000000 4.510495 16.495672 -9.058869 -17.398504 -14.957288 -7.080961 -2.676335 21.332307 2.307854 11.595301 -19.293721 14.213026 0.000000 0.000000 0.000000 0.000000 0.000000 0.000000 -2.897449 -9.660058 -1.049500 13.047309 10.710830 3.409461 -17.680729 -23.258272 -16.316270 -6.884898 31.819517 15.686939 0.000000 0.000000 0.000000 0.000000 0.000000 0.000000 6.602434 -7.633036 13.501066 5.332054 -6.957114 0.511785 53.209769 47.045936 -7.103872 0.000000 0.000000 0.000000 6.325163 -3.084631 14.053385 2.816070 -5.149642 -0.165918 7.422461 -26.943130 19.318090 0.000000 0.000000 0.000000
45.452970 92.539486 336.317662 -7.433190 10.553053 -14.318739 -0.505435 1.194280 14.886539 0.001722 0.335871 -0.227153 -0.851101 10.997478 -1.991419 0.000000 0.000000 0.000000 3.740672 17.577374 -9.727935 -16.802141 -13.110068 -6.402596 -1.366984 22.270039 3.243945 10.055661 -20.130630 14.325246 0.000000 0.000000 0.000000 0.000000 0.000000 0.000000 -3.423792 -9.635900 -1.166307 16.286317 5.030534 2.942300 -20.588481 -12.769086 -15.115701 -9.794942 33.056981 19.800542 0.000000 0.000000 0.000000 0.000000 0.000000 0.000000 7.297583 -8.022115 15.131834 5.479892 -7.028918 0.517041 41.513178 50.630673 7.411849 0.000000 0.000000 0.000000 6.902395 -3.035331 15.668856 2.752391 -5.528036 -0.161772 7.194271 -27.039211 22.009967 0.000000 0.000000 0.000000
45.197599 92.502273 336.299845 -7.754499 10.972375 -15.655458 -0.308601 0.881046 16.265173 -0.036734 0.345927 -0.239930 1.074668 11.876492 -2.824184 0.000000 0.000000 0.000000 3.206089 18.552059 -10.286104 -16.103362 -11.225980 -5.579626 -0.402360 22.334445 3.817165 10.630115 -22.845069 14.647464 0.000000 0.000000 0.000000 0.000000 0.000000 0.000000 -2.975978 -11.974599 -1.853456 17.035208 3.651596 2.653071 -21.659246 -0.224546 -13.324474 -11.325538 28.357007 20.780174 0.000000 0.000000 0.000000 0.000000 0.000000 0.000000 8.006890 -8.269649 16.596443 5.616250 -6.939715 0.514115 26.956137 47.773159 20.714384 0.000000 0.000000 0.000000 7.570441 -2.861692 17.113291 2.628207 -5.851851 -0.157214 6.176437 -25.374893 19.975471 0.000000 0.000000 0.000000
44.931267 92.479151 336.245923 -8.000406 11.245419 -16.903407 -0.136197 0.717235 17.552414 -0.033870 0.382612 -0.240225 5.599497 11.851573 -4.581261 0.000000 0.000000 0.000000 2.688850 19.351680 -10.768631 -15.554125 -9.736204 -4.889484 0.628118 21.544986 4.244051 8.516081 -24.945350 12.963354 0.000000 0.000000 0.000000 0.000000 0.000000 0.000000 -2.160712 -15.147671 -2.667504 15.955395 3.631378 2.245553 -20.450123 18.205494 -9.668984 -4.644910 11.409045 15.459252 0.000000 0.000000 0.000000 0.000000 0.000000 0.000000 8.640554 -8.419520 17.953204 5.625467 -6.804108 0.493005 24.507390 43.241731 18.689930 0.000000 0.000000 0.000000 8.128503 -2.632283 18.437680 2.463811 -6.083540 -0.153525 5.747932 -25.268437 22.894508 0.000000 0.000000 0.000000
44.682211 92.466822 336.170443 -8.184583 11.423673 -17.949470 -0.064871 0.632659 18.624621 -0.030360 0.391332 -0.243412 11.371194 11.673677 -6.808051 0.000000 0.000000 0.000000 2.410180 19.894936 -11.080409 -15.339087 -8.380610 -4.456155 0.871985 21.327129 4.437439 7.106295 -27.079697 11.759270 0.000000 0.000000 0.000000 0.000000 0.000000 0.000000 -0.853211 -19.115573 -3.527469 13.700492 6.179453 2.143438 -18.224809 30.854090 -6.490928 -4.147786 -1.232457 10.882262 0.000000 0.000000 0.000000 0.000000 0.000000 0.000000 9.203592 -8.480158 19.094457 5.552721 -6.726338 0.468238 19.685787 33.633892 13.201687 0.000000 0.000000 0.000000 8.580613 -2.447772 19.535334 2.357142 -6.201391 -0.150835 4.410652 -23.611666 23.855197 0.000000 0.000000 0.000000
44.461926 92.466974 336.103652 -8.273226 11.537501 -19.079387 -0.101964 0.599489 19.764089 -0.017457 0.363873 -0.247549 16.558040 11.387566 -8.800431 0.000000 0.000000 0.000000 2.403794 20.081008 -11.178762 -15.602408 -6.791364 -4.345661 2.668985 16.239597 4.245177 6.711204 -25.954267 10.799532 0.000000 0.000000 0.000000 0.000000 0.000000 0.000000 0.700313 -23.393848 -4.302441 10.328049 10.622293 2.534138 -13.530320 32.375498 -4.440352 -4.086317 -4.047207 8.393039 0.000000 0.000000 0.000000 0.000000 0.000000 0.000000 9.669086 -8.465603 20.294210 5.560458 -6.634192 0.452170 12.085863 22.507476 7.382815 0.000000 0.000000 0.000000 8.891700 -2.225550 20.689741 2.311848 -6.284499 -0.147905 2.494375 -21.142264 24.501400 0.000000 0.000000 0.000000
